<?xml version="1.0" encoding="UTF-8" standalone="no"?>
<!-- Created with Inkscape (http://www.inkscape.org/) -->

<svg
   width="210mm"
   height="297mm"
   viewBox="0 0 210 297"
   version="1.1"
   id="svg5"
   inkscape:version="1.2.2 (732a01da63, 2022-12-09)"
   sodipodi:docname="Hangman_rajz_06.svg"
   xmlns:inkscape="http://www.inkscape.org/namespaces/inkscape"
   xmlns:sodipodi="http://sodipodi.sourceforge.net/DTD/sodipodi-0.dtd"
   xmlns="http://www.w3.org/2000/svg"
   xmlns:svg="http://www.w3.org/2000/svg">
  <sodipodi:namedview
     id="namedview7"
     pagecolor="#ffffff"
     bordercolor="#000000"
     borderopacity="0.25"
     inkscape:showpageshadow="2"
     inkscape:pageopacity="0.0"
     inkscape:pagecheckerboard="0"
     inkscape:deskcolor="#d1d1d1"
     inkscape:document-units="mm"
     showgrid="false"
     inkscape:zoom="0.7184354"
     inkscape:cx="378.6005"
     inkscape:cy="360.50562"
     inkscape:window-width="1920"
     inkscape:window-height="1009"
     inkscape:window-x="-8"
     inkscape:window-y="-8"
     inkscape:window-maximized="1"
     inkscape:current-layer="layer3" />
  <defs
     id="defs2">
    <linearGradient
       id="linearGradient962"
       inkscape:swatch="solid">
      <stop
         style="stop-color:#23caff;stop-opacity:1;"
         offset="0"
         id="stop960" />
    </linearGradient>
  </defs>
  <g
     inkscape:label="Réteg 1"
     inkscape:groupmode="layer"
     id="layer1">
    <rect
       style="fill:#00002b;stroke-width:4;fill-opacity:1;stroke:#b47036;stroke-opacity:1;stroke-dasharray:none;stroke-linejoin:round"
       id="rect281"
       width="152.11238"
       height="194.58768"
       x="24.32346"
       y="41.023151" />
    <path
       style="fill:#ffedfc;fill-opacity:1;stroke:none;stroke-width:1;stroke-linejoin:round;stroke-dasharray:none;stroke-opacity:1"
       d="M 121.98034,148.66354 C 99.487479,108.88691 55.880641,187.04268 55.880641,187.04268 l 40.358234,-83.90064 z"
       id="path5422"
       sodipodi:nodetypes="cccc" />
    <path
       style="fill:#ffedfc;fill-opacity:1;stroke:none;stroke-width:1;stroke-linejoin:round;stroke-dasharray:none;stroke-opacity:1"
       d="m 127.06286,145.57773 c 21.38225,-38.72135 45.38555,42.63229 45.38555,42.63229 L 152.88917,105.1634 Z"
       id="path5426"
       sodipodi:nodetypes="cccc" />
  </g>
  <g
     inkscape:groupmode="layer"
     id="layer2"
     inkscape:label="Réteg 2">
    <rect
       style="fill:#002b22;stroke:none;stroke-width:4;stroke-linejoin:round;stroke-dasharray:none;stroke-opacity:1"
       id="rect2735"
       width="147.75594"
       height="39.207977"
       x="26.50168"
       y="195.31375"
       ry="0" />
  </g>
  <g
     inkscape:groupmode="layer"
     id="layer3"
     inkscape:label="Réteg 3">
    <ellipse
       style="fill:#ffedfc;fill-opacity:1;stroke:none;stroke-width:1;stroke-linejoin:round;stroke-dasharray:none;stroke-opacity:1"
       id="path3635"
       cx="130.90036"
       cy="113.6916"
       rx="15.066025"
       ry="14.702988" />
    <ellipse
       style="fill:#1a1a1a;fill-opacity:1;stroke:none;stroke-width:1;stroke-linejoin:round;stroke-dasharray:none;stroke-opacity:1"
       id="path6596-2"
       ry="1.4210855e-14"
       rx="1.3848523"
       cy="111.14944"
       cx="130.33018" />
    <path
       style="fill:#ffedfc;fill-opacity:1;stroke:none;stroke-width:1;stroke-linejoin:round;stroke-dasharray:none;stroke-opacity:1"
       d="m 103.26156,169.89835 -2.88191,6.04223 c 0,0 -11.564858,-4.65568 -11.449159,8.88349 -0.115699,-13.53917 6.400355,-9.61757 14.331069,-14.92572 z"
       id="path5349"
       sodipodi:nodetypes="cccc" />
    <path
       style="fill:#ffedfc;fill-opacity:1;stroke:none;stroke-width:1;stroke-linejoin:round;stroke-dasharray:none;stroke-opacity:1"
       d="m 111.77768,169.89835 0.64509,7.46286 -12.04312,10.84881 c 12.04312,-10.84881 7.05118,-18.61256 11.39803,-18.31167 z"
       id="path5355"
       sodipodi:nodetypes="cccc" />
    <path
       style="fill:#ffedfc;fill-opacity:1;stroke:none;stroke-width:1;stroke-linejoin:round;stroke-dasharray:none;stroke-opacity:1"
       d="M 115.80872,140.49521 Z"
       id="path5359" />
    <path
       style="fill:#ffedfc;fill-opacity:1;stroke:none;stroke-width:1;stroke-linejoin:round;stroke-dasharray:none;stroke-opacity:1"
       d="M 129.77912,128.24952 98.216682,170.26243 116.64498,168.9325 Z"
       id="path5430"
       sodipodi:nodetypes="cccc" />
    <ellipse
       style="fill:#1a1a1a;fill-opacity:1;stroke:none;stroke-width:1;stroke-linejoin:round;stroke-dasharray:none;stroke-opacity:1"
       id="path6596"
       ry="0.054758675"
       rx="1.9422894"
       cy="112.57018"
       cx="135.03116" />
    <g
       inkscape:groupmode="layer"
       id="layer4"
       inkscape:label="Réteg 4"
       style="fill:#c8ab37">
      <rect
         style="fill:#241f1c;fill-opacity:1;stroke:none;stroke-width:1;stroke-linejoin:round;stroke-dasharray:none;stroke-opacity:1"
         id="rect12720"
         width="5.4212561"
         height="156.79941"
         x="50.459385"
         y="51.293419" />
      <rect
         style="fill:#241f1c;fill-opacity:1;stroke:none;stroke-width:1;stroke-linejoin:round;stroke-dasharray:none;stroke-opacity:1"
         id="rect13752"
         width="107.21404"
         height="5.0499368"
         x="51.664742"
         y="54.383938" />
      <rect
         style="fill:#217821;fill-opacity:1;stroke:none;stroke-width:1;stroke-linejoin:round;stroke-dasharray:none;stroke-opacity:1"
         id="rect14010"
         width="0"
         height="0"
         x="80.410538"
         y="66.814545" />
      <rect
         style="fill:#217821;fill-opacity:1;stroke:none;stroke-width:1;stroke-linejoin:round;stroke-dasharray:none;stroke-opacity:1"
         id="rect14012"
         width="0"
         height="0"
         x="92.452698"
         y="79.245171" />
      <path
         id="rect14018"
         style="stroke-width:1.03611;stroke-linejoin:round;fill:#241f1c"
         d="m 55.004461,58.139877 h 38.235973 l -20.349681,8.694645 -17.219089,7.67283 z"
         sodipodi:nodetypes="ccccc" />
      <text
         xml:space="preserve"
         style="font-size:4.9389px;text-align:justify;fill:#ececec;stroke-width:1;stroke-linejoin:round"
         x="129.15253"
         y="50.109905"
         id="text1050"><tspan
           sodipodi:role="line"
           id="tspan1048"
           style="stroke-width:1"
           x="129.15253"
           y="50.109905">Lives: 0</tspan></text>
    </g>
    <ellipse
       style="fill:#1a1a1a;fill-opacity:1;stroke:none;stroke-width:2.16737;stroke-linejoin:round;stroke-dasharray:none;stroke-opacity:1"
       id="path13383"
       cx="140.32722"
       cy="120.6199"
       rx="3.1202717"
       ry="0.1816169" />
    <path
       style="fill:#554400;stroke-width:1;stroke-linejoin:round"
       id="path2000"
       d="m 107.10928,54.011858 c 0.0995,0.89407 0.16288,1.791933 0.27274,2.685106 0.12114,0.781166 0.25973,1.557631 0.33805,2.344843 0.059,0.625959 0.0681,1.255411 0.076,1.883704 0.007,0.702056 0.006,1.404194 -0.001,2.10625 -10e-4,0.555519 -0.0112,1.111189 -0.004,1.666684 0.0333,0.591204 -0.0741,1.173345 -0.22674,1.741591 -0.15481,0.395822 -0.48008,0.67205 -0.85239,0.8592 -0.30869,0.242784 -0.67561,0.387556 -1.01923,0.570719 -0.41947,0.237879 -0.74547,0.601607 -1.04656,0.971849 -0.28461,0.31283 -0.58241,0.610405 -0.85067,0.937652 -0.28919,0.350742 -0.52334,0.744879 -0.76341,1.130387 -0.22348,0.403273 -0.38705,0.824458 -0.48549,1.274347 -0.0789,0.477756 -0.21666,0.941192 -0.3438,1.407412 -0.12889,0.558382 -0.29742,1.106045 -0.47714,1.649804 -0.16982,0.463187 -0.22985,0.951158 -0.30321,1.435547 -0.0992,0.628113 -0.11216,1.264303 -0.13298,1.898504 -0.0119,0.701874 -0.0107,1.403774 -0.005,2.105679 -0.0292,0.794737 0.18073,1.535485 0.48195,2.261282 0.31857,0.609013 0.72238,1.170655 1.09725,1.746441 0.38676,0.614251 0.97822,1.044305 1.49292,1.541719 0.56855,0.621062 1.131,1.245679 1.7281,1.839894 1.44421,1.199515 3.12393,2.133547 4.86326,2.839712 0.51757,0.147664 1.03774,0.288047 1.56986,0.372615 0.48754,0.06139 0.98098,0.05154 1.47153,0.05527 0.51976,0.0176 1.03316,-0.0034 1.54832,-0.06929 0.48351,-0.06097 0.95622,-0.188603 1.42849,-0.306144 0.58268,-0.1611 1.1328,-0.410581 1.67478,-0.673529 0.52763,-0.246666 1.05154,-0.50197 1.57922,-0.74862 0.52315,-0.42414 0.89336,-1.008917 1.23341,-1.583328 0.33434,-0.642797 0.45024,-1.379222 0.54921,-2.090525 0.0866,-0.571175 0.23119,-1.13048 0.33317,-1.698668 0.0892,-0.678434 0.10877,-1.36499 0.0813,-2.047999 -0.0342,-0.813316 -0.15491,-1.617882 -0.35537,-2.405978 -0.26346,-0.952185 -0.47879,-1.916525 -0.77331,-2.860005 -0.26287,-0.741117 -0.7371,-1.358781 -1.23866,-1.951022 -0.41376,-0.463111 -0.78345,-0.958617 -1.10402,-1.490022 -0.29369,-0.517134 -0.63624,-1.00276 -1.06431,-1.416294 -1.26689,-1.032899 -2.78559,-1.693476 -4.19141,-2.51606 -1.05272,-0.615971 2.11447,1.216366 3.17332,1.821733 0.0776,0.04438 -0.15306,-0.0925 -0.22959,-0.138742 -0.37282,-0.248026 -0.73891,-0.505683 -1.1047,-0.763987 -2.23602,-1.306164 -7.16544,-4.111908 -0.53293,-0.310145 0.075,0.04299 -0.14848,-0.0886 -0.22268,-0.132966 -0.21383,-0.127863 -0.29144,-0.174543 -0.50606,-0.303327 -1.21224,-0.696042 -2.42449,-1.392084 -3.63673,-2.088123 -0.0926,-0.05402 -0.37086,-0.215495 -0.27789,-0.162065 1.02895,0.591328 2.05598,1.186016 3.08585,1.775761 0.0875,0.05009 -0.1712,-0.106529 -0.25859,-0.156744 -3.64629,-2.095119 -2.32389,-1.57095 -3.85344,-2.161445 -0.41587,-0.07691 -0.81184,-0.218331 -1.217,-0.338188 -0.33585,-0.08156 -0.6973,-0.06844 -1.02737,-0.178802 -0.14511,-0.04852 -0.42141,-0.212604 -0.55016,-0.285023 -0.16692,-0.113702 -0.36087,-0.174527 -0.53661,-0.270719 -0.0733,-0.0401 -0.2839,-0.176056 -0.21138,-0.134599 1.0698,0.611553 2.13142,1.237404 3.20346,1.845022 0.0591,0.03348 -0.10468,-0.08742 -0.1632,-0.121841 -1.17923,-0.693578 -2.36597,-1.374327 -3.54895,-2.061493 -1.2411,-0.685882 -0.42541,-0.236408 3.05229,1.763189 0.0524,0.03011 -0.10503,-0.0599 -0.15513,-0.09365 -0.10126,-0.06821 -0.19908,-0.139491 -0.25416,-0.249481 0.18012,-0.389687 0.58774,-0.515078 0.933,-0.712555 0.11421,-0.06533 0.2222,-0.140999 0.3333,-0.2115 0.58426,-0.349065 1.13942,-0.749551 1.76357,-1.026398 0.067,-0.01535 0.13972,-0.07727 0.2009,-0.04601 0.0681,0.03478 0.17434,0.2383 0.10651,0.203076 -1.08639,-0.564163 -2.11429,-1.235956 -3.19666,-1.80779 -0.0924,-0.04882 0.14732,0.148924 0.21205,0.230987 0.15374,0.194897 0.21951,0.334724 0.33787,0.549709 0.23074,0.405484 0.28061,0.867566 0.39845,1.309055 0.65418,1.502619 2.58142,2.318088 4.18754,2.299115 0.45706,0.02863 0.89366,-0.07866 1.30383,-0.274704 0.61111,-0.229007 0.72476,-0.397909 0.88712,-1.0419 0.10039,-0.521948 0.0513,-0.91381 -0.31908,-1.306036 0.83232,-3.386711 -3.20082,-1.524836 -4.44646,-2.248567 -0.35907,-0.150034 -0.74414,-0.179136 -1.12763,-0.200387 -0.47924,0.04244 -0.91942,-0.119637 -1.37563,-0.232415 -0.38223,-0.09235 -0.77479,-0.114435 -1.16626,-0.124717 -0.22946,0.06011 -0.46609,0.101552 -0.70363,0.05305 -0.15177,-0.03099 -0.2916,-0.104674 -0.43835,-0.154254 -0.252,-0.126304 -0.55959,-0.100452 -0.81504,-0.209011 -0.0248,-0.01053 -0.0837,-0.06757 -0.0611,-0.05284 1.12273,0.733091 2.2415,1.472218 3.36225,2.208326 0.36277,-0.216572 0.71754,-0.450741 1.11977,-0.586504 0.36137,-0.197073 0.75807,-0.257937 1.16241,-0.287796 0.47523,-0.03954 0.94747,-0.02021 1.40727,0.109313 0.4561,0.159126 0.92017,0.274696 1.39854,0.344024 0.27448,0.03727 0.5429,0.05779 0.81591,0.0117 0,0 -3.22093,-2.306661 -3.22093,-2.306661 v 0 c -0.25237,-0.01297 -0.50432,-0.03507 -0.7528,-0.08329 -0.469,-0.09558 -0.91997,-0.252561 -1.38827,-0.349732 -0.49422,-0.06329 -0.98979,-0.08167 -1.48539,-0.01384 -0.42626,0.06375 -0.83245,0.182882 -1.21981,0.375306 -0.4132,0.185454 -0.8022,0.419536 -1.18678,0.658095 3.67125,2.795982 1.90616,2.005333 3.99453,2.590716 0.40703,0.09218 0.79629,0.06493 1.2066,0.03862 0.37547,0.02693 0.74793,0.07935 1.11168,0.179435 0.46697,0.114956 0.93418,0.17403 1.41531,0.187616 0.37052,0.0477 0.72728,0.14188 1.07291,0.285536 0.17601,0.03214 0.35746,0.04756 0.53021,0.0954 1.16084,0.321469 3.98611,2.992774 -2.89085,-1.744485 0.43695,0.197295 0.59029,0.398307 0.52078,0.894848 -0.0992,0.561866 -0.20715,0.49835 -0.69875,0.71139 -0.39327,0.133633 -0.79005,0.175313 -1.20436,0.125653 -0.11308,-0.01529 -0.20607,-0.02085 -0.31315,-0.05966 -0.0422,-0.01527 -0.15992,-0.08097 -0.12122,-0.05833 4.44241,2.598425 4.35113,2.344761 3.04524,1.819804 -0.26086,-0.371409 -0.16957,-0.945382 -0.42158,-1.342281 -0.7644,-1.650132 -2.59292,-3.70096 -4.53654,-2.921175 -0.60942,0.320892 -1.16487,0.727758 -1.76249,1.06889 -0.56872,0.322943 -1.1839,0.581237 -1.48275,1.206439 -0.0256,0.09247 -0.0717,0.181597 -0.0769,0.277416 -0.009,0.169087 0.16303,0.402624 0.3013,0.484799 1.85415,1.101915 2.44332,1.433258 3.72092,2.153637 -1.07191,-0.624547 -2.14283,-1.250773 -3.21572,-1.873634 -0.0581,-0.03376 0.11364,0.07196 0.17146,0.106294 1.18034,0.700823 2.35923,1.404096 3.54297,2.099146 0.24097,0.141488 0.50812,0.238818 0.75179,0.375314 0.52897,0.218501 1.08525,0.281019 1.63391,0.431559 0.39371,0.125775 0.80323,0.201472 1.18165,0.37003 1.29246,0.653291 0.26366,0.138399 -2.91581,-1.705094 -0.0881,-0.0511 0.17694,0.101021 0.26504,0.152175 1.21363,0.704713 2.42554,1.412386 3.64014,2.115423 0.0945,0.05472 0.38153,0.212892 0.2872,0.157806 -1.03298,-0.603239 -2.06883,-1.201547 -3.10324,-1.802323 1.38662,0.883253 2.90876,1.722421 4.29028,2.50199 1.07984,0.609338 -2.14558,-1.243338 -3.21928,-1.863432 -0.0576,-0.03329 0.11406,0.06868 0.17109,0.103013 0.19879,0.103294 0.3451,0.232741 0.52707,0.358127 0.19624,0.135221 0.4261,0.226642 0.59124,0.408083 1.29749,0.823952 1.60758,1.025281 3.81592,2.215737 1.07747,0.580832 -2.11364,-1.23522 -3.17333,-1.847892 -0.0677,-0.03912 0.13081,0.08559 0.19703,0.127106 0.32883,0.206176 0.10253,0.04698 0.43154,0.294674 0.4982,0.329848 0.79597,0.79353 1.12962,1.278723 0.28594,0.563364 0.64673,1.083794 1.06644,1.556547 0.48578,0.583819 1.03361,1.12463 1.34007,1.835512 0.33087,0.921994 0.5245,1.874808 0.75115,2.825896 0.22605,0.760991 0.38067,1.534662 0.40615,2.331555 0.0281,0.65454 0.009,1.31176 -0.0689,1.962746 -0.0892,0.57744 -0.24422,1.14105 -0.3228,1.720453 -0.0795,0.662699 -0.18037,1.344226 -0.4795,1.94769 -0.29801,0.507056 -0.62007,1.051539 -1.11847,1.381453 -0.52224,0.25803 -1.05584,0.490982 -1.57687,0.751496 -0.52451,0.253455 -1.07061,0.467765 -1.63939,0.599067 -0.45927,0.114634 -0.92347,0.217168 -1.39495,0.265674 -0.5061,0.0484 -1.01357,0.03081 -1.52141,0.02916 -0.47976,-0.0067 -0.9622,-0.01577 -1.43424,-0.111569 -0.51187,-0.107186 -1.02452,-0.23462 -1.50745,-0.43792 -1.27434,-0.588894 -2.74038,-1.559105 2.649,1.590363 0.0816,0.04767 -0.16923,-0.08447 -0.25059,-0.132527 -0.11302,-0.06676 -0.43667,-0.288354 -0.54057,-0.358667 -0.62354,-0.570143 -1.19865,-1.185751 -1.74338,-1.831089 -0.2265,-0.24598 -0.30655,-0.346516 -0.55234,-0.563223 -0.32989,-0.29086 -0.70903,-0.532535 -0.95237,-0.910302 -0.39596,-0.547423 -0.7315,-1.137751 -1.12429,-1.688132 -0.34833,-0.661977 -0.56968,-1.355979 -0.56611,-2.11129 0.005,-0.696719 0.003,-1.393452 0.0142,-2.090118 0.009,-0.617482 0.0283,-1.236324 0.11848,-1.848252 0.0739,-0.463519 0.13514,-0.93159 0.27129,-1.381985 0.17354,-0.551167 0.36197,-1.099244 0.48809,-1.663743 0.13082,-0.473755 0.28022,-0.942266 0.37045,-1.426368 0.0699,-0.409837 0.20934,-0.788221 0.4104,-1.152943 0.22843,-0.371687 0.46096,-0.746001 0.74043,-1.081585 0.27021,-0.325192 0.57536,-0.616956 0.84569,-0.942121 0.27399,-0.331184 0.57575,-0.642138 0.96886,-0.830267 0.35488,-0.176975 0.70377,-0.364178 1.03053,-0.590053 0.42846,-0.285552 0.80461,-0.638924 0.99807,-1.127525 0.16446,-0.596646 0.27671,-1.21716 0.26939,-1.837528 0.008,-0.556257 -0.002,-1.112692 -0.002,-1.668981 -0.005,-0.703247 -0.003,-1.406488 8e-4,-2.109735 -1.1e-4,-0.640797 -0.007,-1.281546 -0.0635,-1.920449 -0.0865,-0.791996 -0.19971,-1.579803 -0.34634,-2.362986 -0.13278,-0.877326 -0.22331,-1.764342 -0.23809,-2.651947 0,0 -3.54365,-1.761313 -3.54365,-1.761313 z" />
  </g>
</svg>
