<?xml version="1.0" encoding="UTF-8" standalone="no"?>
<!-- Created with Inkscape (http://www.inkscape.org/) -->

<svg
   width="210mm"
   height="297mm"
   viewBox="0 0 210 297"
   version="1.1"
   id="svg5"
   inkscape:version="1.2.2 (732a01da63, 2022-12-09)"
   sodipodi:docname="Hangman_rajz_05.svg"
   xmlns:inkscape="http://www.inkscape.org/namespaces/inkscape"
   xmlns:sodipodi="http://sodipodi.sourceforge.net/DTD/sodipodi-0.dtd"
   xmlns="http://www.w3.org/2000/svg"
   xmlns:svg="http://www.w3.org/2000/svg">
  <sodipodi:namedview
     id="namedview7"
     pagecolor="#ffffff"
     bordercolor="#000000"
     borderopacity="0.25"
     inkscape:showpageshadow="2"
     inkscape:pageopacity="0.0"
     inkscape:pagecheckerboard="0"
     inkscape:deskcolor="#d1d1d1"
     inkscape:document-units="mm"
     showgrid="false"
     inkscape:zoom="1.0916486"
     inkscape:cx="414.51068"
     inkscape:cy="546.42126"
     inkscape:window-width="1191"
     inkscape:window-height="1032"
     inkscape:window-x="110"
     inkscape:window-y="1"
     inkscape:window-maximized="0"
     inkscape:current-layer="layer4" />
  <defs
     id="defs2">
    <linearGradient
       id="linearGradient962"
       inkscape:swatch="solid">
      <stop
         style="stop-color:#23caff;stop-opacity:1;"
         offset="0"
         id="stop960" />
    </linearGradient>
  </defs>
  <g
     inkscape:label="Réteg 1"
     inkscape:groupmode="layer"
     id="layer1">
    <rect
       style="fill:#000080;stroke-width:4;fill-opacity:1;stroke:#b47036;stroke-opacity:1;stroke-dasharray:none;stroke-linejoin:round"
       id="rect281"
       width="152.11238"
       height="194.58768"
       x="24.32346"
       y="41.023151" />
    <path
       style="fill:#ffedfc;fill-opacity:1;stroke:none;stroke-width:1;stroke-linejoin:round;stroke-dasharray:none;stroke-opacity:1"
       d="m 121.25427,146.3038 c -4.04079,12.84342 -5.44555,24.02009 -5.44555,24.02009 v -14.07305 z"
       id="path5422"
       sodipodi:nodetypes="cccc" />
    <path
       style="fill:#ffedfc;fill-opacity:1;stroke:none;stroke-width:1;stroke-linejoin:round;stroke-dasharray:none;stroke-opacity:1"
       d="m 127.06286,145.57773 c 3.26733,12.00448 6.63841,27.13898 6.63841,27.13898 l -1.77903,-18.84395 z"
       id="path5426"
       sodipodi:nodetypes="cccc" />
  </g>
  <g
     inkscape:groupmode="layer"
     id="layer2"
     inkscape:label="Réteg 2">
    <rect
       style="fill:#112b00;stroke:none;stroke-width:4;stroke-linejoin:round;stroke-dasharray:none;stroke-opacity:1"
       id="rect2735"
       width="147.75594"
       height="39.207977"
       x="26.50168"
       y="195.31375"
       ry="0" />
  </g>
  <g
     inkscape:groupmode="layer"
     id="layer3"
     inkscape:label="Réteg 3">
    <ellipse
       style="fill:#ffedfc;stroke:none;stroke-width:1;stroke-linejoin:round;stroke-dasharray:none;stroke-opacity:1;fill-opacity:1"
       id="path3635"
       cx="124.34008"
       cy="114.53809"
       rx="15.066025"
       ry="14.702988" />
    <ellipse
       style="fill:#aa0000;fill-opacity:1;stroke:none;stroke-width:1;stroke-linejoin:round;stroke-dasharray:none;stroke-opacity:1"
       id="path6596-2"
       cx="130.53738"
       cy="111.63114"
       rx="1.3848523"
       ry="1.3246413" />
    <path
       style="fill:#ffedfc;fill-opacity:1;stroke:none;stroke-width:1;stroke-linejoin:round;stroke-dasharray:none;stroke-opacity:1"
       d="m 121.25427,166.63386 c -4.04079,11.53215 -4.04079,11.53215 -4.04079,11.53215 l 0,11.53215 z"
       id="path5349"
       sodipodi:nodetypes="cccc" />
    <path
       style="fill:#ffedfc;fill-opacity:1;stroke:none;stroke-width:1;stroke-linejoin:round;stroke-dasharray:none;stroke-opacity:1"
       d="m 127.06286,166.63386 c 0,14.13877 3.26733,15.80685 3.26733,15.80685 l -3.26733,7.25745 z"
       id="path5355"
       sodipodi:nodetypes="cccc" />
    <path
       style="fill:#ffedfc;fill-opacity:1;stroke:none;stroke-width:1;stroke-linejoin:round;stroke-dasharray:none;stroke-opacity:1"
       d="M 115.80872,140.49521 Z"
       id="path5359" />
    <path
       style="fill:#ffedfc;fill-opacity:1;stroke:none;stroke-width:1;stroke-linejoin:round;stroke-dasharray:none;stroke-opacity:1"
       d="m 124.15856,129.60411 -4.35644,38.11886 10.52807,0.36304 z"
       id="path5430" />
    <ellipse
       style="fill:#aa0000;fill-opacity:1;stroke:none;stroke-width:1;stroke-linejoin:round;stroke-dasharray:none;stroke-opacity:1"
       id="path6596"
       cx="117.4716"
       cy="111.39029"
       rx="1.3848523"
       ry="1.3246413" />
    <g
       inkscape:groupmode="layer"
       id="layer4"
       inkscape:label="Réteg 4"
       style="fill:#c8ab37">
      <rect
         style="fill:#483e37;fill-opacity:1;stroke:none;stroke-width:1;stroke-linejoin:round;stroke-dasharray:none;stroke-opacity:1"
         id="rect12720"
         width="5.4212561"
         height="156.79941"
         x="50.459385"
         y="51.293419" />
      <rect
         style="fill:#483e37;fill-opacity:1;stroke:none;stroke-width:1;stroke-linejoin:round;stroke-dasharray:none;stroke-opacity:1"
         id="rect13752"
         width="107.21404"
         height="5.0499368"
         x="51.664742"
         y="54.383938" />
      <rect
         style="fill:#217821;fill-opacity:1;stroke:none;stroke-width:1;stroke-linejoin:round;stroke-dasharray:none;stroke-opacity:1"
         id="rect14010"
         width="0"
         height="0"
         x="80.410538"
         y="66.814545" />
      <rect
         style="fill:#217821;fill-opacity:1;stroke:none;stroke-width:1;stroke-linejoin:round;stroke-dasharray:none;stroke-opacity:1"
         id="rect14012"
         width="0"
         height="0"
         x="92.452698"
         y="79.245171" />
      <path
         id="rect14018"
         style="stroke-width:1.03611;stroke-linejoin:round;fill:#483e37"
         d="m 55.004461,58.139877 h 38.235973 l -20.349681,8.694645 -17.219089,7.67283 z"
         sodipodi:nodetypes="ccccc" />
      <text
         xml:space="preserve"
         style="font-size:4.9389px;text-align:justify;fill:#ececec;stroke-width:1;stroke-linejoin:round"
         x="129.15253"
         y="50.109905"
         id="text1050"><tspan
           sodipodi:role="line"
           id="tspan1048"
           style="stroke-width:1"
           x="129.15253"
           y="50.109905">Lives: 1</tspan></text>
      <circle
         id="path1107"
         style="fill:#ffdd55;stroke:#000000;stroke-width:0.264583"
         cx="143.48329"
         cy="143.72566"
         r="0.12201639" />
      <circle
         id="path1109"
         style="fill:#0044aa;stroke:#000000;stroke-width:0.264583"
         cx="103.73454"
         cy="157.2984"
         r="0.12201639" />
      <path
         style="fill:#ffd42a;stroke-width:1;stroke-linejoin:round"
         id="path2131"
         d="m 113.86246,53.111309 c 0.12995,0.625862 0.18032,1.264767 0.2142,1.901968 0.038,0.745527 0.0345,1.492211 0.0377,2.238441 -0.0386,0.795208 0.0151,1.574173 0.16516,2.354808 0.173,0.754203 0.22861,1.5255 0.31351,2.292252 0.11119,0.763931 0.18565,1.532239 0.22617,2.30297 0.058,0.853393 0.0197,1.707706 -0.13869,2.548223 -0.18288,0.749412 -0.34252,0.931649 -0.93714,1.365351 -0.61545,0.326874 -1.17322,0.752888 -1.76777,1.115171 -0.56464,0.306861 -1.09794,0.654812 -1.62416,1.023162 -0.65447,0.4567 -1.3238,0.892652 -1.96575,1.367618 -0.61639,0.349076 -1.04665,0.908421 -1.50084,1.435434 -0.51459,0.689964 -0.9382,1.446001 -1.37956,2.184474 -0.46002,0.818737 -0.85261,1.683641 -1.09224,2.592879 -0.25643,0.974202 -0.14284,1.946394 0.0348,2.920564 0.16624,0.767617 0.34142,1.533194 0.65835,2.253736 0.32392,0.894967 0.62871,1.791796 1.00498,2.667569 0.48493,0.856676 0.98513,1.704901 1.48433,2.553428 1.25249,1.911596 2.29926,2.029164 4.73932,3.451119 0.64424,0.263202 1.34658,0.250698 1.99724,0.487873 0.60225,0.234823 1.2486,0.289063 1.88728,0.334187 0.72892,0.02712 1.45871,0.02715 2.18802,0.02151 0.99168,-0.0055 1.97916,0.0062 2.96683,-0.08906 0.8485,-0.08125 1.69632,-0.121086 2.54164,-0.231301 0.72016,-0.155067 1.43934,-0.314272 2.14238,-0.535099 0.61106,-0.180586 1.20074,-0.425693 1.80829,-0.616849 0.83669,-0.298792 1.32191,-0.967304 1.80937,-1.667034 0.48966,-0.829157 0.66297,-1.806228 0.81643,-2.74614 0.16657,-1.165553 0.27382,-2.331354 0.27012,-3.508896 -0.0482,-1.007017 0.021,-2.026991 -0.13914,-3.025261 -0.28122,-0.810631 -0.54326,-1.629011 -0.91626,-2.403086 -0.27791,-0.64311 -0.74968,-1.158299 -1.19907,-1.683997 -0.50678,-0.51853 -0.97168,-1.072713 -1.44919,-1.617252 -0.42504,-0.473385 -0.91101,-0.870466 -1.45255,-1.201145 -0.54868,-0.324826 -1.05912,-0.70902 -1.57584,-1.081476 -1.33889,-0.895546 -2.82749,-1.669693 -4.19877,-2.431799 -0.24959,-0.138713 -0.56932,-0.18756 -0.83648,-0.288007 -0.50031,-0.190174 -1.04415,-0.273306 -1.52452,-0.505364 -0.52709,-0.262515 -1.09405,-0.392301 -1.67497,-0.45787 -0.62485,0.0093 -1.21705,-0.09602 -1.82168,-0.241599 -0.32397,-0.08597 -0.65824,-0.114123 -0.97379,-0.232248 -0.24148,-0.09039 -0.31514,-0.147109 -0.53575,-0.277675 1.02107,0.581752 2.04214,1.163505 3.06322,1.745257 -0.43727,-0.35397 -1.08316,-0.564149 -1.36537,-1.079658 0.0377,-0.257429 0.84159,-0.485452 1.04729,-0.543372 0.87504,-0.130744 1.73822,0.09388 2.58831,0.275367 0.70617,0.170625 1.38255,0.426974 2.09417,0.577382 0.69881,0.102523 1.3987,0.157157 2.08819,-0.01278 0.10391,-0.04382 0.22359,-0.06112 0.31174,-0.131467 0.54944,-0.438486 0.6748,-1.259001 0.62784,-1.906645 -0.10843,-0.455652 -0.39651,-0.901422 -0.81292,-1.140508 -1.19883,-0.68834 -2.40927,-1.35628 -3.6139,-2.034421 -0.64665,-0.15377 -1.25372,0.07267 -1.85483,0.286316 -0.74467,0.338866 -1.47211,0.674484 -2.26919,0.869241 -0.44524,0.03892 -0.9517,0.02776 -1.38247,-0.119832 -0.18945,-0.06491 -0.35615,-0.183216 -0.53486,-0.273585 -1.22808,-0.565663 -2.97279,-1.630227 2.60697,1.533727 0.0771,0.04373 -0.152,-0.09182 -0.22304,-0.144852 -0.16703,-0.124701 -0.14721,-0.121666 -0.24853,-0.279514 -0.0444,-0.358679 0.38132,-0.60435 0.62147,-0.810561 0.43155,-0.374087 0.98197,-0.428906 1.50513,-0.580202 0.51862,-0.116838 1.0341,-0.247642 1.55648,-0.348393 0.31939,-0.07391 0.62122,-0.20343 0.92924,-0.312955 0,0 -3.24801,-2.195605 -3.24801,-2.195605 v 0 c -0.29729,0.103889 -0.59451,0.211768 -0.90658,0.263729 -0.52589,0.114763 -1.0548,0.219033 -1.57254,0.36734 -0.57816,0.146944 -1.13474,0.322138 -1.59818,0.719386 -0.39794,0.318135 -0.80033,0.673489 -0.85597,1.210974 0.0388,0.286491 0.10238,0.535786 0.37459,0.697767 1.39489,0.830019 2.67867,1.686327 4.13444,2.319171 0.65617,0.261993 1.35804,0.327131 2.04961,0.158705 0.79558,-0.229039 1.53442,-0.582422 2.30655,-0.876242 0.56323,-0.18428 1.13459,-0.307369 1.69622,-0.04131 -1.04749,-0.609303 -2.09907,-1.211643 -3.14248,-1.827913 -0.0754,-0.04451 0.16136,0.06881 0.23742,0.112106 0.29893,0.170143 0.547,0.429678 0.72332,0.722093 0.15692,0.587661 0.0585,1.360818 -0.62953,1.521386 -0.66646,0.08765 -1.34003,0.02233 -1.99548,-0.121827 -0.69773,-0.176525 -1.37735,-0.419992 -2.0854,-0.557491 -0.89056,-0.172225 -1.80477,-0.339153 -2.70348,-0.11829 -0.55941,0.184873 -1.19134,0.385705 -1.37255,1.009052 10e-4,0.09022 -0.0186,0.183084 0.003,0.270659 0.13882,0.559874 0.87549,0.789104 1.26838,1.117383 2.34221,1.370102 3.04879,2.162667 5.20171,2.557579 0.61639,0.130251 1.23578,0.173712 1.86126,0.234198 0.55977,0.102963 1.09108,0.289301 1.61073,0.521261 0.51464,0.160599 1.0251,0.331782 1.53705,0.500533 0.18947,0.06477 0.3444,0.113353 0.52812,0.193543 0.0911,0.03976 0.35448,0.179523 0.26886,0.12903 -5.46029,-3.220009 -3.7111,-2.109015 -2.50609,-1.46965 0.50824,0.390589 1.03656,0.75578 1.56384,1.11946 0.27602,0.161341 0.56293,0.302697 0.81954,0.494975 0.34073,0.255309 0.12985,0.118269 0.44874,0.411099 0.0725,0.06657 0.15192,0.125156 0.22788,0.187735 0.4961,0.528878 0.93861,1.102463 1.44782,1.619017 0.46904,0.476763 0.93681,0.992415 1.24694,1.58778 0.11388,0.214972 0.24238,0.422649 0.34377,0.643779 0.24794,0.540716 0.37081,1.13124 0.6157,1.673577 0.28876,0.961197 0.14929,1.990103 0.23645,2.979822 0.0121,1.166823 -0.0919,2.28331 -0.27105,3.435872 -0.14078,0.883528 -0.28797,1.805201 -0.74385,2.587341 -0.44813,0.645269 -0.90784,1.220595 -1.70063,1.437453 -0.59667,0.204599 -1.18412,0.436715 -1.78917,0.615785 -0.69116,0.192347 -1.38975,0.365207 -2.09652,0.489453 -0.84184,0.101997 -1.68878,0.128651 -2.53142,0.223766 -0.98141,0.0907 -1.96595,0.06524 -2.95054,0.05522 -0.7286,-0.0066 -1.45865,0.0011 -2.18534,-0.06072 -0.62816,-0.06371 -1.24329,-0.182007 -1.83846,-0.399039 -0.65547,-0.158681 -1.34922,-0.201234 -1.94321,-0.552286 6.7247,3.953296 3.38957,2.250961 2.5915,1.437928 -0.25971,-0.26457 -0.46567,-0.57795 -0.72137,-0.846182 -0.4973,-0.8469 -1.0033,-1.688783 -1.51857,-2.524718 -0.41224,-0.853207 -0.7127,-1.740974 -0.97277,-2.650844 -0.0979,-0.212267 -0.22556,-0.411324 -0.30716,-0.630354 -0.18687,-0.501576 -0.23564,-1.055624 -0.41461,-1.560581 -0.21915,-0.908492 -0.32452,-1.836346 -0.10782,-2.757406 0.21972,-0.879911 0.58403,-1.709841 1.0292,-2.499593 0.43288,-0.719314 0.86081,-1.444045 1.37576,-2.108755 0.4364,-0.504217 0.86341,-1.018604 1.44143,-1.369621 0.64194,-0.471533 1.31158,-0.903706 1.9718,-1.348438 0.52803,-0.356439 1.07044,-0.684533 1.61805,-1.00977 0.58901,-0.387286 1.17148,-0.785299 1.78482,-1.134517 0.60572,-0.441449 0.90322,-0.886611 1.07912,-1.623721 0.16713,-0.867204 0.18287,-1.756376 0.15892,-2.637203 -0.018,-0.780658 -0.073,-1.555761 -0.19996,-2.327521 -0.1077,-0.77188 -0.11677,-1.558904 -0.308,-2.319756 -0.15658,-0.781957 -0.24021,-1.481796 -0.19022,-2.283555 8e-4,-0.750146 -0.003,-1.500425 -0.0201,-2.250382 -0.0292,-0.643765 -0.0786,-1.285319 -0.15803,-1.92506 0,0 -3.55444,-1.737749 -3.55444,-1.737749 z" />
    </g>
    <path
       style="fill:#aa0000;fill-opacity:1;stroke:none;stroke-width:2.16737;stroke-linejoin:round;stroke-dasharray:none;stroke-opacity:1"
       id="path13383"
       sodipodi:type="arc"
       sodipodi:cx="124.02682"
       sodipodi:cy="120.32285"
       sodipodi:rx="5.1703615"
       sodipodi:ry="0.38198307"
       sodipodi:start="0"
       sodipodi:end="6.1940005"
       sodipodi:arc-type="arc"
       d="m 129.19718,120.32285 a 5.1703615,0.38198307 0 0 1 -5.05509,0.38189 5.1703615,0.38198307 0 0 1 -5.28049,-0.36486 5.1703615,0.38198307 0 0 1 4.81964,-0.39816 5.1703615,0.38198307 0 0 1 5.49539,0.34711"
       sodipodi:open="true" />
  </g>
</svg>
